<svg version="1.1" id="Layer_1" xmlns="http://www.w3.org/2000/svg" xmlns:xlink="http://www.w3.org/1999/xlink" x="0px" y="0px"
	 width="100%" viewBox="0 0 356 342" enable-background="new 0 0 356 342" xml:space="preserve">
<path fill="#FFFFFF" opacity="1.000000" stroke="none" 
	d="
M248.000000,343.000000 
	C165.333344,343.000000 83.166695,343.000000 1.000033,343.000000 
	C1.000022,229.000031 1.000022,115.000069 1.000011,1.000079 
	C119.666603,1.000053 238.333206,1.000053 356.999878,1.000026 
	C356.999908,114.999916 356.999908,228.999832 356.999939,342.999878 
	C320.833344,343.000000 284.666656,343.000000 248.000000,343.000000 
M195.142609,29.045790 
	C192.056335,28.697346 188.978149,28.167400 185.882492,28.029478 
	C163.275955,27.022264 141.841171,31.355494 122.007446,42.518997 
	C103.564720,52.899574 89.047440,67.576164 79.197807,86.055656 
	C66.610741,109.670998 64.285461,135.596771 68.313301,161.563980 
	C71.598564,182.743866 81.599083,201.501694 96.646774,217.002563 
	C109.016792,229.745087 122.038559,241.854507 134.753555,254.262863 
	C137.892181,257.325806 141.135880,260.305847 144.033203,263.587189 
	C159.548477,281.158905 173.399216,299.660522 177.577957,324.955994 
	C178.609924,324.618927 178.740738,323.498505 179.011337,322.412964 
	C179.639984,319.891083 179.965866,317.208252 181.071091,314.905853 
	C185.126923,306.456696 189.412949,298.116852 193.681473,289.771210 
	C203.125809,271.305939 218.221939,257.621552 232.913620,243.616943 
	C244.563766,232.511642 256.812653,221.988632 267.917542,210.367920 
	C284.287445,193.237564 290.264709,171.482590 291.774963,148.572174 
	C292.439514,138.490906 291.466125,128.117157 289.823029,118.108215 
	C286.774628,99.538483 278.705353,82.966858 266.244568,68.839661 
	C247.464462,47.548027 223.747192,34.772800 195.142609,29.045790 
z"/>
<path fill="#E70E02" opacity="1.000000" stroke="none" 
	d="
M195.542450,29.240475 
	C223.747192,34.772800 247.464462,47.548027 266.244568,68.839661 
	C278.705353,82.966858 286.774628,99.538483 289.823029,118.108215 
	C291.466125,128.117157 292.439514,138.490906 291.774963,148.572174 
	C290.264709,171.482590 284.287445,193.237564 267.917542,210.367920 
	C256.812653,221.988632 244.563766,232.511642 232.913620,243.616943 
	C218.221939,257.621552 203.125809,271.305939 193.681473,289.771210 
	C189.412949,298.116852 185.126923,306.456696 181.071091,314.905853 
	C179.965866,317.208252 179.639984,319.891083 179.011337,322.412964 
	C178.740738,323.498505 178.609924,324.618927 177.577957,324.955994 
	C173.399216,299.660522 159.548477,281.158905 144.033203,263.587189 
	C141.135880,260.305847 137.892181,257.325806 134.753555,254.262863 
	C122.038559,241.854507 109.016792,229.745087 96.646774,217.002563 
	C81.599083,201.501694 71.598564,182.743866 68.313301,161.563980 
	C64.285461,135.596771 66.610741,109.670998 79.197807,86.055656 
	C89.047440,67.576164 103.564720,52.899574 122.007446,42.518997 
	C141.841171,31.355494 163.275955,27.022264 185.882492,28.029478 
	C188.978149,28.167400 192.056335,28.697346 195.542450,29.240475 
M128.119293,110.654671 
	C125.408661,118.957039 120.997139,127.114922 120.277466,135.586426 
	C116.895782,175.393570 150.445999,206.061325 189.640488,199.017166 
	C214.396957,194.567871 230.010681,178.937729 236.532242,154.880432 
	C242.600723,132.494537 233.134918,107.270042 214.601746,93.751747 
	C185.827820,72.763748 148.470200,79.835457 128.119293,110.654671 
z"/>
<path fill="#FFFCFB" opacity="1.000000" stroke="none" 
	d="
M128.321686,110.350357 
	C148.470200,79.835457 185.827820,72.763748 214.601746,93.751747 
	C233.134918,107.270042 242.600723,132.494537 236.532242,154.880432 
	C230.010681,178.937729 214.396957,194.567871 189.640488,199.017166 
	C150.445999,206.061325 116.895782,175.393570 120.277466,135.586426 
	C120.997139,127.114922 125.408661,118.957039 128.321686,110.350357 
M170.814682,171.954544 
	C176.351227,171.589325 181.885101,171.169617 187.426178,170.896286 
	C188.855331,170.825790 190.663681,170.726166 191.689896,171.474075 
	C197.684921,175.843201 204.913223,175.708038 208.647797,170.886047 
	C212.611938,165.767578 211.262192,157.706512 205.934357,152.988876 
	C204.830917,152.011810 204.012146,150.098267 204.009293,148.614502 
	C204.002167,144.923218 203.474335,141.564011 199.140335,141.313736 
	C195.099564,141.080383 194.237427,144.128174 193.787048,147.658752 
	C192.372177,158.749954 182.220001,165.387360 172.121872,161.786774 
	C165.422760,159.398132 161.592728,154.386230 161.043961,147.228149 
	C160.776123,143.734665 159.454956,141.155228 155.795303,141.307114 
	C151.781433,141.473679 150.707092,144.469040 151.017166,148.067108 
	C151.116806,149.223495 151.212341,150.392990 151.465912,151.521393 
	C153.778290,161.812012 160.033112,168.510269 170.814682,171.954544 
M175.904724,128.306198 
	C177.756058,126.087738 179.511276,123.779205 181.483765,121.674278 
	C183.793488,119.209473 184.972687,116.609291 182.383331,113.823807 
	C179.788986,111.032967 176.994308,111.850609 174.531036,114.208267 
	C171.292908,117.307571 168.060043,120.419884 164.974228,123.668457 
	C162.431473,126.345306 162.191589,129.207718 164.992447,131.983154 
	C168.294266,135.255020 171.584137,138.539032 174.866470,141.830444 
	C177.271088,144.241699 179.928696,144.532440 182.310791,142.116135 
	C184.721115,139.671204 184.068817,136.927460 181.942169,134.571060 
	C180.164108,132.600891 178.198624,130.799835 175.904724,128.306198 
M213.673996,110.728767 
	C210.563263,107.334267 207.562973,107.369553 204.409607,110.789261 
	C201.604004,113.831833 198.637741,116.731262 195.659622,119.608185 
	C193.252884,121.933144 192.676682,124.584198 194.990616,126.993347 
	C197.341248,129.440689 200.098526,128.910324 202.378891,126.512672 
	C204.517456,124.264091 206.554825,121.919273 208.839417,119.392662 
	C211.699097,122.344002 213.570099,125.131027 216.177536,126.671814 
	C217.984314,127.739479 220.806000,127.089630 223.174210,127.207191 
	C223.093445,124.820068 223.888748,121.829880 222.747849,120.172539 
	C220.439972,116.819969 217.081863,114.190361 213.673996,110.728767 
M149.041779,127.006134 
	C149.044693,122.366394 148.914520,117.721474 149.094940,113.088646 
	C149.226456,109.711723 147.902023,107.404480 144.592590,107.169594 
	C141.222137,106.930382 139.436203,109.295311 139.306473,112.474190 
	C139.110733,117.271317 138.835419,122.138184 139.463470,126.859741 
	C139.711868,128.727112 142.107758,131.348450 143.867050,131.652557 
	C145.324326,131.904465 147.282822,129.256927 149.041779,127.006134 
z"/>
<path fill="#E81408" opacity="1.000000" stroke="none" 
	d="
M170.419952,171.863968 
	C160.033112,168.510269 153.778290,161.812012 151.465912,151.521393 
	C151.212341,150.392990 151.116806,149.223495 151.017166,148.067108 
	C150.707092,144.469040 151.781433,141.473679 155.795303,141.307114 
	C159.454956,141.155228 160.776123,143.734665 161.043961,147.228149 
	C161.592728,154.386230 165.422760,159.398132 172.121872,161.786774 
	C182.220001,165.387360 192.372177,158.749954 193.787048,147.658752 
	C194.237427,144.128174 195.099564,141.080383 199.140335,141.313736 
	C203.474335,141.564011 204.002167,144.923218 204.009293,148.614502 
	C204.012146,150.098267 204.830917,152.011810 205.934357,152.988876 
	C211.262192,157.706512 212.611938,165.767578 208.647797,170.886047 
	C204.913223,175.708038 197.684921,175.843201 191.689896,171.474075 
	C190.663681,170.726166 188.855331,170.825790 187.426178,170.896286 
	C181.885101,171.169617 176.351227,171.589325 170.419952,171.863968 
z"/>
<path fill="#E81A0E" opacity="1.000000" stroke="none" 
	d="
M176.110428,128.615051 
	C178.198624,130.799835 180.164108,132.600891 181.942169,134.571060 
	C184.068817,136.927460 184.721115,139.671204 182.310791,142.116135 
	C179.928696,144.532440 177.271088,144.241699 174.866470,141.830444 
	C171.584137,138.539032 168.294266,135.255020 164.992447,131.983154 
	C162.191589,129.207718 162.431473,126.345306 164.974228,123.668457 
	C168.060043,120.419884 171.292908,117.307571 174.531036,114.208267 
	C176.994308,111.850609 179.788986,111.032967 182.383331,113.823807 
	C184.972687,116.609291 183.793488,119.209473 181.483765,121.674278 
	C179.511276,123.779205 177.756058,126.087738 176.110428,128.615051 
z"/>
<path fill="#E71205" opacity="1.000000" stroke="none" 
	d="
M213.915405,110.995697 
	C217.081863,114.190361 220.439972,116.819969 222.747849,120.172539 
	C223.888748,121.829880 223.093445,124.820068 223.174210,127.207191 
	C220.806000,127.089630 217.984314,127.739479 216.177536,126.671814 
	C213.570099,125.131027 211.699097,122.344002 208.839417,119.392662 
	C206.554825,121.919273 204.517456,124.264091 202.378891,126.512672 
	C200.098526,128.910324 197.341248,129.440689 194.990616,126.993347 
	C192.676682,124.584198 193.252884,121.933144 195.659622,119.608185 
	C198.637741,116.731262 201.604004,113.831833 204.409607,110.789261 
	C207.562973,107.369553 210.563263,107.334267 213.915405,110.995697 
z"/>
<path fill="#E8180B" opacity="1.000000" stroke="none" 
	d="
M149.030518,127.450058 
	C147.282822,129.256927 145.324326,131.904465 143.867050,131.652557 
	C142.107758,131.348450 139.711868,128.727112 139.463470,126.859741 
	C138.835419,122.138184 139.110733,117.271317 139.306473,112.474190 
	C139.436203,109.295311 141.222137,106.930382 144.592590,107.169594 
	C147.902023,107.404480 149.226456,109.711723 149.094940,113.088646 
	C148.914520,117.721474 149.044693,122.366394 149.030518,127.450058 
z"/>
</svg>